<?xml version="1.0"?>
<svg xmlns="http://www.w3.org/2000/svg" xmlns:xlink="http://www.w3.org/1999/xlink" version="1.1" id="Capa_1" x="0px" y="0px" viewBox="0 0 512 512" style="enable-background:new 0 0 512 512;" xml:space="preserve" width="512px" height="512px" class=""><g><path style="fill:#C7EFFF" d="M497,0H15C6.716,0,0,6.716,0,15v385.601c0,8.284,6.716,15,15,15h81.4V497  c0,6.067,3.654,11.536,9.26,13.858c1.855,0.769,3.805,1.142,5.737,1.142c3.903,0,7.74-1.523,10.609-4.394l92.006-92.006H497  c8.284,0,15-6.716,15-15V15C512,6.716,505.284,0,497,0z" data-original="#C7EFFF" class=""/><path style="fill:#91E1FF" d="M497,0H256v415.601h241c8.284,0,15-6.716,15-15V15C512,6.716,505.284,0,497,0z" data-original="#91E1FF" class=""/><path style="fill:#09426D" d="M360.434,144.6h-35.915l2.663-31.953c0.688-8.256-5.447-15.506-13.702-16.194  c-8.259-0.682-15.507,5.447-16.194,13.702l-2.87,34.445h-66.297l2.663-31.953c0.688-8.256-5.447-15.506-13.702-16.194  c-8.249-0.682-15.507,5.447-16.194,13.702l-2.87,34.445h-30.381c-8.284,0-15,6.716-15,15s6.716,15,15,15h27.881l-5.533,66.4h-38.414  c-8.284,0-15,6.716-15,15s6.716,15,15,15h35.914l-2.663,31.954c-0.688,8.256,5.447,15.506,13.702,16.194  c0.424,0.035,0.845,0.053,1.263,0.053c7.721,0,14.279-5.924,14.932-13.755l2.87-34.446h66.297l-2.663,31.954  c-0.688,8.256,5.447,15.506,13.702,16.194c0.424,0.035,0.845,0.053,1.263,0.053c7.721,0,14.279-5.924,14.932-13.755l2.87-34.446  h30.382c8.284,0,15-6.716,15-15s-6.716-15-15-15h-27.882l5.533-66.4h38.415c8.284,0,15-6.716,15-15S368.718,144.6,360.434,144.6z   M286.382,241h-66.297l5.533-66.4h66.297L286.382,241z" data-original="#09426D" class=""/><path style="fill:#012641" d="M360.434,144.6h-35.915l2.663-31.953c0.688-8.256-5.447-15.506-13.702-16.194  c-8.259-0.682-15.507,5.447-16.194,13.702l-2.87,34.445H256v30h35.915l-5.533,66.4H256v30h27.882l-2.663,31.954  c-0.688,8.256,5.447,15.506,13.702,16.194c0.424,0.035,0.845,0.053,1.263,0.053c7.721,0,14.279-5.924,14.932-13.755l2.87-34.446  h30.382c8.284,0,15-6.716,15-15s-6.716-15-15-15h-27.882l5.533-66.4h38.415c8.284,0,15-6.716,15-15S368.718,144.6,360.434,144.6z" data-original="#012641" class="active-path" data-old_color="#012641"/></g> </svg>
